<?xml version="1.0" encoding="UTF-8"?>
<svg id="Capa_2" data-name="Capa 2" xmlns="http://www.w3.org/2000/svg" width="18.75" height="22.37" viewBox="0 0 18.75 22.37">
  <defs>
    <style>
      .cls-1 {
        fill: #535353;
      }
    </style>
  </defs>
  <path class="cls-1" d="m15.17,11.54h2.14v-.85h-1.99c.1-.39.23-.71.35-.96.22-.17.34-.36.34-.57,0,0,0,0,0,0,0,0,0,0,0-.01-.03-1.08-3.29-1.66-6.35-1.66s-6.33.58-6.35,1.66c0,0,0,0,0,.01,0,0,0,0,0,0,0,.21.12.4.34.57.19.4.41.98.48,1.72.11,1.11.98,2.84,3.3,3.54l-.45-.13-1.6,5.56-.11-.03-.34,1.21c-.04.15.04.3.19.34l.18.05c.07.02.14.01.21-.03.06-.04.11-.1.13-.17l.34-1.21-.06-.02.55-1.92h2.92v2.17h-.08s-.02,1.26-.02,1.26c0,.15.12.28.27.28h.18c.07,0,.14-.02.2-.07.05-.05.08-.12.08-.19l.02-1.26h-.11v-2.18h2.9l.55,1.91-.09.02.34,1.21c.02.07.07.13.13.17.06.04.14.04.21.03l.18-.05c.15-.04.23-.19.19-.34l-.34-1.21-.09.03-1.59-5.55-.23.07c2.11-.71,2.95-2.3,3.09-3.38Zm-11.6-2.38c0-.28.44-.56,1.21-.81l-.75,1.31c-.3-.16-.46-.34-.46-.5Zm11.7.5l-.75-1.31c.77.24,1.21.53,1.21.81,0,.17-.16.34-.46.5Zm-4.38.86l-.18-2.73c.21,0,.42.02.63.04l.41,2.64c-.28.02-.56.05-.86.06Zm1.13-.09l-.4-2.59c.21.02.42.04.62.06l.65,2.42c-.27.04-.56.08-.87.11Zm1.14-.15l-.63-2.34c.21.03.42.06.61.09l.87,2.08c-.26.06-.54.12-.85.17Zm1.11-.25l-.81-1.94c.24.05.46.1.67.15l.88,1.54c-.21.09-.46.17-.74.25Zm-3.84-2.26l.18,2.76c-.27.01-.55.02-.83.02v-2.79c.22,0,.44,0,.65.01Zm-5.28.47c.21-.05.43-.1.67-.15l-.81,1.94c-.28-.08-.54-.16-.74-.25l.88-1.54Zm.99-.21c.19-.03.4-.06.61-.09l-.63,2.34c-.31-.05-.59-.11-.85-.17l.87-2.08Zm.91-.13c.2-.02.4-.04.62-.06l-.4,2.59c-.31-.03-.59-.07-.87-.11l.65-2.42Zm.9-.08c.2-.01.41-.03.63-.04l-.18,2.73c-.3-.01-.58-.04-.86-.06l.41-2.64Zm.9-.05c.21,0,.43-.01.65-.01v2.79c-.29,0-.56,0-.83-.02l.18-2.76Zm-2.26,6.35c-.2-.1-.38-.24-.57-.37-.17-.15-.35-.29-.49-.46-.07-.09-.14-.17-.21-.25-.07-.08-.12-.18-.18-.27-.13-.17-.2-.37-.28-.54-.06-.18-.14-.35-.17-.52-.05-.16-.07-.31-.09-.45-.02-.13-.03-.25-.03-.35,0-.19,0-.3,0-.3,0,0,0,.11.05.3.04.19.1.45.22.76.05.15.13.31.21.48.1.16.18.33.3.49.06.08.11.17.18.24.07.08.14.15.21.23.14.16.31.29.47.43.18.12.34.26.53.35.19.09.36.21.55.28.19.08.37.15.54.22.18.05.35.1.51.14.08.02.15.04.23.06.07.01.14.03.21.04.13.03.25.05.34.07.19.04.3.07.3.07,0,0-.11,0-.3-.01-.1,0-.21-.01-.35-.02-.07,0-.14,0-.22-.01-.08-.01-.15-.03-.23-.04-.16-.03-.34-.07-.53-.1-.18-.05-.38-.12-.58-.19-.2-.07-.39-.18-.59-.27Zm6.15,4.24h-2.83v-3.09h-.55v3.09h-2.84l.97-3.37c.61.17,1.32.28,2.15.28s1.52-.1,2.14-.28l.96,3.36Z"/>
  <path class="cls-1" d="m7.76,0s.03,0,.08.01c.05.01.13.01.22.06.1.04.21.1.32.21.11.1.19.26.25.44.05.18.06.38.05.58-.01.2-.04.41-.09.62-.09.42-.23.84-.36,1.25-.14.41-.26.82-.35,1.2-.03.19-.07.37-.07.54-.01.17.01.33.04.47.04.14.09.27.15.37.04.05.07.1.1.14.04.04.07.08.1.11.06.07.12.11.16.15.04.03.06.05.06.05,0,0-.03,0-.08-.03-.05-.02-.13-.04-.21-.09-.04-.03-.09-.05-.14-.08-.05-.03-.1-.08-.15-.13-.11-.1-.21-.23-.29-.4-.07-.17-.14-.36-.15-.57-.03-.21-.02-.42,0-.64.03-.21.06-.43.12-.65.06-.22.12-.43.19-.64.07-.21.14-.41.21-.62.07-.2.14-.4.2-.59.06-.19.11-.37.15-.54.03-.17.05-.33.04-.48-.02-.14-.04-.27-.11-.37-.06-.1-.13-.18-.2-.24-.07-.06-.14-.1-.18-.13-.04-.03-.07-.04-.07-.04Z"/>
  <path class="cls-1" d="m9.46,0s.03,0,.08.01c.05.01.13.01.22.06.1.04.21.1.32.21.11.1.19.26.25.44.05.18.06.38.05.58-.01.2-.04.41-.09.62-.09.42-.23.84-.36,1.25-.14.41-.26.82-.35,1.2-.03.19-.07.37-.07.54-.01.17,0,.33.04.47.04.14.09.27.15.37.04.05.07.1.1.14.04.04.07.08.1.11.06.07.12.11.16.15.04.03.06.05.06.05,0,0-.03,0-.08-.03-.05-.02-.13-.04-.21-.09-.04-.03-.09-.05-.14-.08-.05-.03-.1-.08-.15-.13-.11-.1-.21-.23-.29-.4-.07-.17-.14-.36-.15-.57-.03-.21-.02-.42,0-.64.03-.21.06-.43.12-.65.06-.22.12-.43.19-.64.07-.21.14-.41.21-.62.07-.2.14-.4.2-.59.06-.19.11-.37.15-.54.03-.17.05-.33.04-.48-.02-.14-.04-.27-.11-.37-.06-.1-.13-.18-.2-.24-.07-.06-.14-.1-.18-.13-.04-.03-.07-.04-.07-.04Z"/>
  <path class="cls-1" d="m11.2,0s.03,0,.08.01c.05.01.13.01.22.06.1.04.21.1.32.21.11.1.19.26.25.44.05.18.06.38.05.58-.01.2-.04.41-.09.62-.09.42-.23.84-.36,1.25-.14.41-.26.82-.35,1.2-.03.19-.07.37-.07.54-.01.17,0,.33.04.47.04.14.09.27.15.37.04.05.07.1.1.14.04.04.07.08.1.11.06.07.12.11.16.15.04.03.06.05.06.05,0,0-.03,0-.07-.03-.05-.02-.13-.04-.21-.09-.04-.03-.09-.05-.14-.08-.05-.03-.1-.08-.15-.13-.11-.1-.21-.23-.29-.4-.07-.17-.13-.36-.15-.57-.03-.21-.02-.42,0-.64.03-.21.06-.43.12-.65.06-.22.12-.43.19-.64.07-.21.14-.41.21-.62.07-.2.14-.4.2-.59.06-.19.11-.37.15-.54.03-.17.05-.33.04-.48-.02-.14-.04-.27-.11-.37-.06-.1-.13-.18-.2-.24-.07-.06-.14-.1-.18-.13-.04-.03-.07-.04-.07-.04Z"/>
</svg>