<?xml version="1.0" encoding="UTF-8"?>
<svg id="Capa_1" data-name="Capa 1" xmlns="http://www.w3.org/2000/svg" width="16.85" height="21.05" viewBox="0 0 16.85 21.05">
  <defs>
    <style>
      .cls-1 {
        fill: #fff;
        fill-rule: evenodd;
        stroke: #000;
        stroke-miterlimit: 10;
        stroke-width: .21px;
      }
    </style>
  </defs>
  <path class="cls-1" d="m13.38,4c.74-.16,1.48.06,2.01.54l-1.47,1.47-.54-2.01h0Zm-.26-.56c-.77.21-1.38.7-1.75,1.34-.28.49-.42,1.06-.38,1.65H3.75L2.37,1.27.42.14l-.27.47,1.76,1.02,1.29,4.8H.74l3.14,3.59,2.68,3.07v7.07l-.8.31-1.26.48h5.02l-1.26-.48-.8-.31v-7.07l2.68-3.07,1.6-1.83c.2.21.42.39.67.53.64.37,1.42.49,2.19.29.77-.21,1.38-.7,1.75-1.34.37-.64.49-1.42.29-2.19-.21-.77-.7-1.38-1.34-1.75-.64-.37-1.42-.49-2.19-.29h0Zm2.11.42c-.6-.35-1.34-.47-2.07-.27-.73.19-1.31.67-1.66,1.27-.27.47-.4,1.01-.36,1.57h.46c-.02-.23,0-.47.04-.69l2.01.54-1.47,1.47-.03-.03-.3.34c.19.21.41.38.65.52.6.35,1.34.47,2.07.27.73-.2,1.31-.67,1.66-1.27.35-.6.47-1.34.27-2.07-.19-.73-.67-1.31-1.27-1.65h0Zm.32.83l-1.47,1.47,2.01.54c.07-.34.07-.71-.03-1.07-.1-.36-.28-.68-.51-.94h0Zm.48,2.22c-.22.68-.75,1.24-1.47,1.47l-.54-2.01,2.01.54h0Zm-1.68,1.53c-.74.16-1.48-.06-2.01-.54l1.47-1.47.54,2.01h0Zm-2.65-2.91l2.01.54-.54-2.01c-.72.23-1.25.79-1.47,1.47Z"/>
</svg>