<?xml version="1.0" encoding="UTF-8"?>
<svg id="Capa_2" data-name="Capa 2" xmlns="http://www.w3.org/2000/svg" width="22.65" height="21.32" viewBox="0 0 22.65 21.32">
  <defs>
    <style>
      .cls-1 {
        fill: #fff;
        fill-rule: evenodd;
        stroke: #000;
        stroke-miterlimit: 10;
        stroke-width: .25px;
      }
    </style>
  </defs>
  <path class="cls-1" d="m12.13,9.39h6.7c.4,0,.79.34.73.73l-1.25,8.27c-.06.4-.33.73-.73.73h-4.19c-.4,0-.67-.33-.73-.73l-1.25-8.27c-.06-.4.33-.73.73-.73h0Zm-6.57.63c3,0,5.44,1.88,5.44,4.19,0,.34-.05.67-.15.98H.28c-.1-.32-.15-.64-.15-.98,0-2.32,2.44-4.19,5.44-4.19h0Zm5.23,6.48H.43c-.11,0-.2.09-.2.2v2.22c0,.11.09.2.2.2h10.36c.11,0,.2-.09.2-.2v-2.22c0-.11-.09-.2-.2-.2h0Zm.15-.35H.28s-.05-.02-.05-.05v-.54s.02-.05.05-.05h10.66s.05.02.05.05v.54s-.02.05-.05.05h0Zm6.39-9.14l2.33-4.04s.01-.07.05-.08c.02-.03.06-.04.09-.02l2.48-.66s.07.01.08.05l.16.59s-.01.07-.05.08l-2.27.61-2.01,3.48h-.86Zm-6.23.56h8.75c.06,0,.12.05.12.12v1.08c0,.07-.05.12-.12.12h-8.75c-.06,0-.12-.05-.12-.12v-1.08c0-.07.05-.12.12-.12Z"/>
</svg>